<svg xmlns="http://www.w3.org/2000/svg" width="239.126" height="63.025" viewBox="0 0 239.126 63.025">
  <g id="ABL_Funds_logo" data-name="ABL Funds logo" transform="translate(-89 -31.454)">
    <g id="Group_17435" data-name="Group 17435" transform="translate(-1 -8.546)">
      <g id="Group_17434" data-name="Group 17434" transform="translate(90 40)">
        <g id="Group_1325" data-name="Group 1325">
          <path id="Path_707" data-name="Path 707" d="M69.671,130.905v5.943l4.23-6.514a26.675,26.675,0,0,0-4.23.571" transform="translate(-61.159 -103.467)" fill="#f26522"/>
          <path id="Path_706" data-name="Path 706" d="M132.45,106.912v-27.2H111.485L126.792,104.3c-.048,0,2.473,1.142,5.658,2.616" transform="translate(-80.821 -79.664)" fill="#f26522"/>
          <path id="Path_708" data-name="Path 708" d="M90.682,79.712H69.717l-.046,25.868a45.335,45.335,0,0,1,6.56-2.71Z" transform="translate(-61.159 -79.664)" fill="#f26522"/>
          <path id="Path_709" data-name="Path 709" d="M105.233,106.869c-3.185-1.474-5.705-2.616-5.705-2.616L84.268,79.669l-.1-.048H83.126l-.046.048L68.674,102.874a47.679,47.679,0,0,0-6.56,2.71,96.51,96.51,0,0,0-8.51,4.8,27.832,27.832,0,0,1,8.51-3.329,26.579,26.579,0,0,1,4.182-.571L62.066,113l-.048.095v5.516h4.9l7.274-11.6c9.887-1.378,21.868,4.422,21.868,4.422l4.611,7.323h4.755v-2.235l3.708,2.045,8.651-4.993c-.237-.81-7.273-4.232-12.55-6.7M77.47,101.637l6.275-10.079,6.513,10.65s-9.346-1.07-12.787-.571" transform="translate(-53.604 -79.621)" fill="#083b82"/>
        </g>
        <g id="Group_1326" data-name="Group 1326" transform="translate(71.414 12.088)">
          <g id="Group_1319" data-name="Group 1319" transform="translate(0 0)">
            <path id="Path_710" data-name="Path 710" d="M198.973,102.438h3.978l10.569,27.047h-3.978l-2.955-8.145h-11.44l-3.03,8.145H188.4Zm-2.69,15.872h9.167L200.942,105.7h-.076Z" transform="translate(-188.404 -102.438)" fill="#083b82"/>
            <path id="Path_711" data-name="Path 711" d="M238.6,102.438h9.812c2.349,0,5.568,0,7.159.985a6.372,6.372,0,0,1,3.182,5.644,6.2,6.2,0,0,1-4.015,6.061v.076a6.224,6.224,0,0,1,5.152,6.516c0,3.94-2.879,7.766-8.22,7.766H238.6Zm3.6,11.629h7.2c4.091,0,5.758-1.439,5.758-4.318,0-3.788-2.613-4.281-5.758-4.281h-7.2Zm0,12.387h9.016c3.144,0,5.076-1.856,5.076-4.849,0-3.523-2.841-4.508-5.871-4.508H242.2Z" transform="translate(-212.008 -102.438)" fill="#083b82"/>
            <path id="Path_712" data-name="Path 712" d="M283.295,102.438h3.6v24.017h14.319v3.031H283.295Z" transform="translate(-233.023 -102.438)" fill="#083b82"/>
          </g>
          <path id="Path_713" data-name="Path 713" d="M333.638,102.438H351.4v3.03H337.237v8.6h12.425v3.03H337.237v12.388h-3.6Z" transform="translate(-256.695 -102.438)" fill="#f26522"/>
          <path id="Path_714" data-name="Path 714" d="M383.675,136.108h-3.03V133h-.076a6.779,6.779,0,0,1-6.364,3.56c-5.152,0-6.744-2.955-6.744-7.16v-12.88h3.22v13.258a3.672,3.672,0,0,0,3.978,3.94c3.9,0,5.8-2.613,5.8-6.137V116.523h3.22Z" transform="translate(-272.599 -109.061)" fill="#f26522"/>
          <path id="Path_715" data-name="Path 715" d="M401.715,116.12h3.03v3.106h.076a6.78,6.78,0,0,1,6.364-3.561c5.152,0,6.743,2.955,6.743,7.16V135.7h-3.22V122.446a3.672,3.672,0,0,0-3.977-3.94c-3.9,0-5.8,2.614-5.8,6.137V135.7h-3.22Z" transform="translate(-288.706 -108.657)" fill="#f26522"/>
          <path id="Path_716" data-name="Path 716" d="M454.03,129.485h-3.22v-2.652h-.076c-1.061,2.159-3.523,3.106-6.25,3.106-6.024,0-9.016-4.772-9.016-10.3s2.955-10.19,8.94-10.19c1.97,0,4.925.758,6.326,3.069h.076V102.437h3.22Zm-9.092-2.387c4.356,0,5.985-3.751,5.985-7.387,0-3.826-1.742-7.424-6.175-7.424-4.394,0-5.872,3.75-5.872,7.576,0,3.675,1.894,7.236,6.061,7.236" transform="translate(-304.577 -102.437)" fill="#f26522"/>
          <path id="Path_717" data-name="Path 717" d="M476.8,129.529c.114,2.879,2.652,3.788,5.266,3.788,2.008,0,4.735-.455,4.735-2.917,0-5.038-12.8-1.629-12.8-9.167,0-3.94,3.864-5.569,7.311-5.569,4.395,0,7.728,1.364,8.031,6.137h-3.22c-.19-2.5-2.462-3.3-4.545-3.3-1.932,0-4.167.531-4.167,2.5,0,2.273,3.409,2.727,6.4,3.409,3.219.72,6.4,1.818,6.4,5.569,0,4.7-4.356,6.175-8.334,6.175-4.394,0-8.106-1.78-8.3-6.629Z" transform="translate(-322.499 -108.657)" fill="#f26522"/>
        </g>
      </g>
    </g>
    <g id="Group_1308" data-name="Group 1308" transform="translate(160.666 77.668)">
      <path id="Path_718" data-name="Path 718" d="M189.7,169.971h4.516c4.055,0,6.322,2.046,6.322,6.267,0,4.406-1.936,6.894-6.322,6.894H189.7Zm1.751,11.686h2.912c1.2,0,4.423-.332,4.423-5.18,0-3.134-1.161-5.032-4.387-5.032h-2.949Z" transform="translate(-189.7 -169.971)" fill="#4b4b4b"/>
      <path id="Path_719" data-name="Path 719" d="M214.745,171.887h-1.567V169.97h1.567Zm-1.567,1.714h1.567v9.53h-1.567Z" transform="translate(-200.959 -169.97)" fill="#4b4b4b"/>
      <path id="Path_720" data-name="Path 720" d="M220.126,183.268c.055,1.4,1.29,1.843,2.562,1.843.977,0,2.3-.221,2.3-1.419,0-2.452-6.23-.793-6.23-4.461,0-1.916,1.88-2.709,3.558-2.709,2.138,0,3.76.664,3.908,2.986H224.66c-.092-1.216-1.2-1.6-2.211-1.6-.94,0-2.028.258-2.028,1.217,0,1.106,1.659,1.327,3.115,1.659,1.567.35,3.115.884,3.115,2.709,0,2.285-2.119,3-4.055,3-2.138,0-3.945-.867-4.037-3.226Z" transform="translate(-203.539 -173.112)" fill="#4b4b4b"/>
      <path id="Path_721" data-name="Path 721" d="M242.3,179.8a2.206,2.206,0,0,0-2.359-1.9c-2.268,0-2.968,1.806-2.968,3.723,0,1.769.793,3.483,2.783,3.483a2.441,2.441,0,0,0,2.618-2.322h1.6a3.938,3.938,0,0,1-4.2,3.7c-2.912,0-4.461-2.009-4.461-4.866s1.475-5.106,4.5-5.106c2.174,0,3.871,1.014,4.11,3.281Z" transform="translate(-211.572 -173.112)" fill="#4b4b4b"/>
      <path id="Path_722" data-name="Path 722" d="M257.818,176.522c3.023,0,4.627,2.194,4.627,5,0,2.783-1.6,4.977-4.627,4.977s-4.626-2.194-4.626-4.977c0-2.8,1.6-5,4.626-5m0,8.59c1.641,0,2.968-1.29,2.968-3.594s-1.327-3.613-2.968-3.613-2.967,1.309-2.967,3.613,1.327,3.594,2.967,3.594" transform="translate(-220.147 -173.112)" fill="#4b4b4b"/>
      <path id="Path_723" data-name="Path 723" d="M276.821,186.477h-1.677l-3.539-9.53h1.751l2.673,7.945h.036l2.6-7.945h1.64Z" transform="translate(-228.977 -173.316)" fill="#4b4b4b"/>
      <path id="Path_724" data-name="Path 724" d="M297.6,183.251a3.815,3.815,0,0,1-4.074,3.244c-3.042,0-4.478-2.12-4.571-5.014,0-2.876,1.88-4.958,4.479-4.958,3.373,0,4.405,3.152,4.314,5.456h-7.134a2.808,2.808,0,0,0,2.968,3.134,2.27,2.27,0,0,0,2.47-1.862Zm-1.511-2.654a2.742,2.742,0,0,0-2.746-2.691,2.7,2.7,0,0,0-2.729,2.691Z" transform="translate(-237.298 -173.112)" fill="#4b4b4b"/>
      <path id="Path_725" data-name="Path 725" d="M307.724,176.741H309.2v2.009h.036a3.442,3.442,0,0,1,3.5-2.23v1.659c-2.526,0-3.447,1.419-3.447,3.852v4.24h-1.567Z" transform="translate(-246.298 -173.109)" fill="#4b4b4b"/>
      <path id="Path_726" data-name="Path 726" d="M328.406,174.315h1.9V175.7h-1.9v5.917c0,.737.2.848,1.18.848h.718v1.383h-1.2c-1.622,0-2.267-.332-2.267-2.083V175.7h-1.622v-1.382h1.622v-2.857h1.567Z" transform="translate(-254.687 -170.684)" fill="#4b4b4b"/>
      <path id="Path_727" data-name="Path 727" d="M337.185,169.971h1.567V175h.036a3.192,3.192,0,0,1,3-1.622c2.507,0,3.281,1.438,3.281,3.483v6.267h-1.567v-6.451a1.786,1.786,0,0,0-1.935-1.917,2.678,2.678,0,0,0-2.82,2.986v5.383h-1.567Z" transform="translate(-260.426 -169.971)" fill="#4b4b4b"/>
      <path id="Path_728" data-name="Path 728" d="M363.394,183.251a3.814,3.814,0,0,1-4.073,3.244c-3.042,0-4.479-2.12-4.571-5.014,0-2.876,1.88-4.958,4.479-4.958,3.374,0,4.406,3.152,4.314,5.456h-7.134a2.807,2.807,0,0,0,2.968,3.134,2.27,2.27,0,0,0,2.47-1.862Zm-1.511-2.654a2.742,2.742,0,0,0-2.746-2.691,2.7,2.7,0,0,0-2.728,2.691Z" transform="translate(-268.849 -173.112)" fill="#4b4b4b"/>
      <path id="Path_729" data-name="Path 729" d="M382.441,176.744h1.566v1.29h.037a3.188,3.188,0,0,1,3.041-1.511c2.931,0,4.387,2.323,4.387,5.014,0,2.71-1.437,4.958-4.35,4.958A3.648,3.648,0,0,1,384.045,185h-.037v4.921h-1.566Zm4.423,1.161c-2.119,0-2.913,1.825-2.913,3.594,0,1.862.848,3.613,3.005,3.613,2.137,0,2.857-1.825,2.857-3.686,0-1.788-.922-3.521-2.949-3.521" transform="translate(-282.128 -173.112)" fill="#4b4b4b"/>
      <path id="Path_730" data-name="Path 730" d="M405.835,176.522c3.023,0,4.627,2.194,4.627,5,0,2.783-1.6,4.977-4.627,4.977s-4.626-2.194-4.626-4.977c0-2.8,1.6-5,4.626-5m0,8.59c1.641,0,2.968-1.29,2.968-3.594s-1.327-3.613-2.968-3.613-2.967,1.309-2.967,3.613,1.327,3.594,2.967,3.594" transform="translate(-291.128 -173.112)" fill="#4b4b4b"/>
      <path id="Path_731" data-name="Path 731" d="M422.634,174.315h1.9V175.7h-1.9v5.917c0,.737.2.848,1.18.848h.718v1.383h-1.2c-1.622,0-2.268-.332-2.268-2.083V175.7h-1.622v-1.382h1.622v-2.857h1.567Z" transform="translate(-299.873 -170.684)" fill="#4b4b4b"/>
      <path id="Path_732" data-name="Path 732" d="M439.067,183.251a3.815,3.815,0,0,1-4.074,3.244c-3.042,0-4.479-2.12-4.571-5.014,0-2.876,1.88-4.958,4.479-4.958,3.373,0,4.405,3.152,4.314,5.456h-7.134a2.808,2.808,0,0,0,2.968,3.134,2.27,2.27,0,0,0,2.47-1.862Zm-1.511-2.654a2.742,2.742,0,0,0-2.746-2.691,2.7,2.7,0,0,0-2.729,2.691Z" transform="translate(-305.137 -173.112)" fill="#4b4b4b"/>
      <path id="Path_733" data-name="Path 733" d="M449.3,176.743h1.475v1.511h.036a3.3,3.3,0,0,1,3.1-1.733c2.507,0,3.281,1.438,3.281,3.484v6.267h-1.567v-6.452a1.786,1.786,0,0,0-1.935-1.917,2.678,2.678,0,0,0-2.82,2.986v5.383H449.3Z" transform="translate(-314.188 -173.112)" fill="#4b4b4b"/>
      <path id="Path_734" data-name="Path 734" d="M469.093,174.315h1.9V175.7h-1.9v5.917c0,.737.2.848,1.18.848h.718v1.383h-1.2c-1.622,0-2.268-.332-2.268-2.083V175.7H465.9v-1.382h1.622v-2.857h1.567Z" transform="translate(-322.152 -170.684)" fill="#4b4b4b"/>
      <path id="Path_735" data-name="Path 735" d="M479.617,171.887H478.05V169.97h1.567ZM478.05,173.6h1.567v9.53H478.05Z" transform="translate(-327.977 -169.97)" fill="#4b4b4b"/>
      <path id="Path_736" data-name="Path 736" d="M492.567,186.237a2.206,2.206,0,0,1-1.124.258c-.811,0-1.327-.442-1.327-1.474a4.172,4.172,0,0,1-3.355,1.474c-1.733,0-3.152-.756-3.152-2.673,0-2.156,1.6-2.636,3.226-2.931,1.714-.35,3.207-.2,3.207-1.4,0-1.382-1.142-1.585-2.12-1.585-1.327,0-2.3.405-2.377,1.806h-1.567c.092-2.36,1.9-3.189,4.037-3.189,1.714,0,3.576.387,3.576,2.617v4.9c0,.737,0,1.069.5,1.069a1.588,1.588,0,0,0,.479-.092Zm-2.543-4.884c-1.217.9-4.756.018-4.756,2.359,0,1.033.885,1.4,1.843,1.4,2.065,0,2.912-1.272,2.912-2.157Z" transform="translate(-330.643 -173.112)" fill="#4b4b4b"/>
      <rect id="Rectangle_1671" data-name="Rectangle 1671" width="1.567" height="13.161" transform="translate(162.882 0)" fill="#4b4b4b"/>
    </g>
  </g>
</svg>
